<svg xmlns="http://www.w3.org/2000/svg" width="368" height="64"><svg x="0" y="0" width="64" height="64" viewBox="0 0 980 980" fill="none" shape-rendering="auto"><mask id="viewboxMask"><rect width="980" height="980" rx="490" ry="490" x="0" y="0" fill="#fff" /></mask><g mask="url(#viewboxMask)"><g transform="translate(10 -60)"><path d="m723 184 8 9c10 13 17 29 21 45 5 23 6 46-3 69-6 15-16 28-29 38 2 9 3 19 3 28 0 20-6 38-14 56l-8 11c-3 3-8 3-10-1-7-8-10-18-13-28l-8-38c-24 8-50 9-75 6l-45-8c-30-6-61-12-92-14-30-3-61-1-91 5-3 0-4 2-6 3-10 6-19 15-24 26-4 7-4 15-3 23l2 12-10 15c-5 8-7 18-8 27l1 36c1 18-1 37-8 53l-2 5h-4l-9-8-19 7c-5 2-10 3-16 3-3 0-5-2-7-4-6-7-11-15-15-23a221 221 0 0 1-19-91c0-33 5-66 15-97 9-24 24-46 45-60 10-6 20-10 31-12 1-6 2-12 5-17 6-13 17-22 29-30 33-23 74-34 114-35 22 0 44 3 66 8l53 10c23 5 46 10 70 11 12 0 25 0 37-5 9-3 16-7 20-15 4-5 4-12 7-17 2-3 7-5 11-3Z" fill="#2c3e50"/><path d="M486 236c57-2 115 18 159 56a209 209 0 0 1 73 190c-1 4-1 8-4 12l-1-3v-33a215 215 0 0 0-172-206 235 235 0 0 0-270 153c-12 37-14 78-6 116 6-2 12-2 17-2 2 1 5 1 6 3s0 3-1 4l-12 4c-14 3-27 8-37 18a63 63 0 0 0-22 45c0 12 3 24 8 35 8 13 19 24 33 31 18 10 41 13 62 7 2-1 4-2 6-1s3 4 4 6l15 30a215 215 0 0 0 72 63c28 15 59 21 90 26 3 1 8 1 10 4 1 2 0 3-2 4l-11 1a231 231 0 0 1-147-62c5 18 8 36 8 54 0 12-2 23-6 34-5 10-11 18-19 26a196 196 0 0 1-60 43c-1-1 1-2 2-3l17-14c13-12 25-23 35-38a93 93 0 0 0 17-65l-4-39-2-10-12-17c-5-10-11-20-13-31a93 93 0 0 1-96-31 81 81 0 0 1-19-51c0-12 3-23 8-34 9-16 23-29 40-36-8-31-8-62-3-93 8-40 26-77 51-108 45-54 115-87 186-88Z" fill="#000"/><path d="M541 252a214 214 0 0 1 172 206v33c-1 5-2 10-1 15-2 2-3 3-3 5-3 18-1 37 1 55 4 29 6 59 2 88-3 28-13 56-30 79-16 21-38 34-62 43-15 6-30 9-45 13-11 2-22 4-32 8 1 2 4 1 6 2 12 1 24-1 36-2-5 8-8 17-9 26-2 10 2 19 9 26 6 7 15 11 24 14 5 2 11 3 17 3 7 9 13 18 14 30 2 12-1 24-8 34-9 14-22 23-37 30-18 9-38 15-57 18a352 352 0 0 1-192-23c-18-10-38-23-48-42-4-7-8-16-6-24 18-10 33-23 47-38 8-8 14-16 19-26 4-11 6-22 6-34 0-18-3-36-8-54a235 235 0 0 0 147 62l11-1c2-1 3-2 2-4-2-3-7-3-10-4-31-5-62-11-90-26-18-10-36-22-50-37-8-8-16-17-22-26l-15-30c-1-2-2-5-4-6s-4 0-6 1a82 82 0 0 1-95-38c-5-11-8-23-8-35 1-17 9-34 22-45 10-10 23-15 37-18l12-4c1-1 2-2 1-4s-4-2-6-3c-5 0-11 0-17 2-8-38-6-79 6-116a236 236 0 0 1 270-153Z" fill="#f5cba7"/><path d="m712 506 3 3 1 13 3 45c3 20 5 40 5 60 0 16-1 32-5 47-6 28-20 56-40 76a174 174 0 0 1-88 46c-1 9-4 16-4 25-1 6 2 10 5 15 8 8 18 14 28 19l18 9c-3 3-8 1-12 2-6 0-12-1-17-3-9-3-18-7-24-14-7-7-11-16-9-26 1-9 4-18 9-26-12 1-24 3-36 2-2-1-5 0-6-2 10-4 21-6 32-8 15-4 30-7 45-13 24-9 46-22 62-43 17-23 27-51 30-79 4-29 2-59-2-88-2-18-4-37-1-55 0-2 1-3 3-5ZM262 566c6 0 12 1 15 6 2 3 2 7 1 10-3 8-9 14-11 22-1 4 0 7 3 9 7 5 16 7 24 10l-2 2h-11c-6-1-12-2-17-5-5-4-9-11-7-18 2-9 9-15 12-23-7-4-14-2-20-8 3-4 8-6 13-5Z" fill="#000"/><path d="M670 463c7 1 14 4 18 10 6 7 7 15 8 24 0 4-1 9-3 12-3 4-9 4-12 0-2-3-2-8-3-12 0-7-3-15-10-18 10 15 11 33 7 50-2 9-6 16-13 22-4 4-11 6-17 4-6-1-10-6-13-11-4-8-6-16-6-25l-5 14c-1 3-2 6-5 9-3-3-3-6-4-10a83 83 0 0 1 34-61c7-5 15-8 24-8ZM455 468c14 0 29 5 40 14 14 10 24 25 28 42v14c-1 1-2 2-4 1a163 163 0 0 0-17-27c1 14-2 28-11 39-6 8-15 14-26 15-11 0-21-7-27-16-8-12-9-27-6-41 2-9 7-17 13-23l-13 5c-6 5-13 9-18 16l-5 6c-3 4-9 4-12 0-3-3-3-8-1-12 6-8 13-16 22-22 11-8 24-11 37-11Z" fill="#1e8449"/><path d="M659 498c1 7-1 13-3 20l-5 9c-1 2-4 2-5 1l-4-7c-3-6-5-13-4-19 0-3 2-4 5-4 3 1 4 3 5 5 1-2 2-6 4-7 2-2 6-1 7 2ZM475 500c4 0 6 3 7 6 1 8-2 14-4 22 0 4-2 8-6 11-2 1-4 0-5-2l-10-15-3-8c-1-4-1-8 2-12 2-2 5-2 8 0l5 6c1-4 2-7 6-8Z" fill="#fff"/><path d="M524 402c7 3 12 9 15 16 4 6 6 12 4 19-1 2-2 5-4 3-3-2-5-6-6-9l-14 2-26 3-39 4c-12 1-24 0-36-1-3 0-7-1-9-3-3-2-2-7 1-8 9-3 20-2 30-4 7-1 14-4 20-6 9-3 17-7 26-9l20-5c5-1 12-4 18-2ZM631 404c11 0 19 6 30 8 6 2 14 1 20 5 2 1 3 4 2 7-2 2-5 2-8 2l-14 1-25 6-23 2-5 18-3 3-2-5c-1-10 0-21 5-30 2-4 4-9 8-12 4-4 10-6 15-5Z" fill="#000000"/><path d="M607 606c0 3-2 6-4 9-4 6-11 10-18 12-5 1-9-2-13 0-4 0-8 1-12-1-2-1-2-4 0-6 3-4 8-7 12-7 4-1 7-1 10 2l1 7c5-2 7-5 11-8l13-8Z" fill="#000000"/><path d="M476 660c3 0 5 2 7 4l13 7c11 5 23 8 34 11 15 5 30 6 45 6 12 1 23 2 34 1l4 2c-18 9-41 11-61 10-23-1-46-8-66-18-6-4-13-8-14-16-1-3 1-7 4-7Z" fill="#b03a2e"/><path d="M720 183c3 1 6 3 8 6a132 132 0 0 1 27 65c3 23-1 47-14 67-6 11-15 20-25 28-15 11-32 20-50 26-23 6-47 7-71 4l-43-8c-30-6-60-11-90-14-32-3-64-1-96 5-2 0-3 2-5 3-10 6-19 15-24 25-4 7-4 16-3 24l2 12-11 15c-6 12-7 25-7 38l2 31c0 16-3 32-9 47l-2 5h-4l-13-11c-10-6-19-11-30-15-7-4-13-7-19-13-7-6-12-15-15-24-6-15-7-29-7-45v-25c1-19 3-39 8-57 4-15 8-30 15-44 10-17 23-31 40-41 8-5 18-8 27-10 1-6 2-12 5-17 6-13 17-22 29-30 33-23 74-34 114-35 22 0 44 3 65 7l56 12c26 5 53 10 79 10 12-1 24-2 35-8 5-4 10-8 13-14 2-5 2-10 5-14 1-3 5-5 8-5Z" fill="#2c3e50"/></g><g transform="translate(10 -60)"></g></g></svg><svg x="76" y="0" width="64" height="64" viewBox="0 0 980 980" fill="none" shape-rendering="auto"><mask id="viewboxMask"><rect width="980" height="980" rx="490" ry="490" x="0" y="0" fill="#fff" /></mask><g mask="url(#viewboxMask)"><g transform="translate(10 -60)"><path d="M366 180c12 1 23 4 33 10 13 6 25 17 31 30 27 0 54-2 81 0a287 287 0 0 1 136 46c8 6 16 12 22 19 5 5 11 10 15 16 6 8 11 16 15 26 8 17 12 36 9 55-2 11-6 22-13 30-3 4-9 5-12 1-7-8-13-19-19-28-14-26-27-51-42-76l-16-1c-3 0-5-2-8-5l-11-8c-1 4-2 8-5 11-1 2-4 3-6 3-4-1-7-3-11-3a344 344 0 0 0-103-4 550 550 0 0 0-63 7l-18-6c1 8 4 17 3 26-1 4 0 7-2 10l-13 23-11 24c-6 16-11 32-14 48-1 2-2 5-4 6l-12 2c5 8 5 18 5 28-1 13-2 27-9 38 7 10 10 21 10 33 2 19 0 39-8 56l-7 10c2 23 6 47 13 70 7 24 17 48 27 71l17 36c1 3 3 7 1 10-2 6-6 10-11 14-7 5-15 8-24 10-13 3-27 2-38-5-8-4-15-10-20-18a180 180 0 0 0 18 49c-10 1-20-1-29-6a76 76 0 0 1-33-38c-8-19-12-39-15-59-12 23-32 43-55 55-7 3-14 5-21 1l2-7c7-10 15-21 21-32 10-17 18-36 20-55 2-13 2-27 1-40l-5-45-8-77-4-50a685 685 0 0 1 6-124 264 264 0 0 1 85-156c16-13 35-22 54-28 15-4 30-5 45-3Z" fill="#922b21"/><path d="M528 244c41 6 80 22 113 47 28 21 50 49 65 81 13 28 20 60 19 91-1 15-3 30-8 44h-2l1-21c1-30-2-59-13-87-10-30-28-57-50-79-42-40-98-62-156-63a243 243 0 0 0-196 94 207 207 0 0 0-40 139l2 25c8 0 19 0 25 7l-3 3-17 1c-12 1-24 5-33 13a64 64 0 0 0-17 39c-5 32 12 65 39 83 16 10 36 15 55 9 4-2 9-5 14-3 3 1 4 4 5 7a251 251 0 0 0 90 100c8 7 18 13 28 18 18 8 38 14 57 19l32 8c5 1 9 1 13 3l-4 1c-25 2-48-3-72-10-12-3-23-7-34-12a306 306 0 0 1-84-63l2 28c1 17 0 35-6 52-4 12-11 24-19 34-10 10-22 19-34 26-10 7-21 14-32 18l-16 5 9-9 31-20 22-17a95 95 0 0 0 32-56c2-14 2-28 2-43v-27c-10-14-22-29-27-46-17 8-38 7-55-1-17-7-32-19-43-33-12-17-19-36-21-56s2-40 15-56c9-10 22-18 35-21-4-14-6-29-6-44a234 234 0 0 1 83-173 249 249 0 0 1 199-55Z" fill="#000"/><path d="M653 320c22 22 40 49 50 79 11 28 14 57 13 87l-1 21-5 15-2 13 2 56c0 21 1 42-1 63l-3 47c-2 16-7 31-14 45-11 18-26 33-44 44-13 8-27 12-41 16l-38 11-17 3c0 1 1 2 3 2 8 5 17 5 26 4-3 7-4 14-2 22 3 7 11 11 17 14 12 6 24 7 36 9 7 6 14 14 16 24 2 8 2 16-2 23-5 10-14 18-24 23-13 8-27 14-42 18a468 468 0 0 1-222-1c-17-4-33-9-48-17-12-6-23-13-32-22-5-7-9-14-10-23 11-4 22-11 32-18 12-7 24-16 34-26 8-10 15-22 19-34 6-17 7-35 6-52l-2-28 22 23c19 15 40 30 62 40 11 5 22 9 34 12 24 7 47 12 72 10l4-1c-4-2-8-2-13-3l-32-8c-19-5-39-11-57-19l-29-17c-11-9-23-17-33-27a251 251 0 0 1-56-74c-1-3-2-6-5-7-5-2-10 1-14 3-19 6-39 1-55-9a88 88 0 0 1-39-83c1-14 7-28 17-39 9-8 21-12 33-13l17-1 3-3c-6-7-17-7-25-7l-2-25a207 207 0 0 1 40-139 243 243 0 0 1 196-94c58 1 114 23 156 63Z" fill="#d5a67b"/><path d="M710 522c3 0 3 4 4 6 3 11 4 23 5 34l2 21c1 22 2 43 1 65-1 21-1 44-5 65a136 136 0 0 1-80 99c-15 7-31 11-48 13v15c1 3 3 4 5 6 12 6 23 8 36 11 12 3 24 5 36 11-3 3-7 4-11 4-7 1-15-1-23-1-12-2-24-3-36-9-6-3-14-7-17-14-2-8-1-15 2-22-9 1-18 1-26-4-2 0-3-1-3-2l17-3 38-11c14-4 28-8 41-16 18-11 33-26 44-44 7-14 12-29 14-45l3-47c2-21 1-42 1-63l-2-56 2-13ZM252 549c8 0 17 1 23 7 5 4 10 9 12 15 1 3 0 6-2 8l-13 8c-7 6-7 19 0 25 6 5 14 8 21 11 2 0 5 1 6 3-1 2-3 3-5 3-10 0-20-3-28-9-5-3-8-8-9-13-2-8-2-17 4-24 4-6 11-9 18-12-4-5-7-11-14-13-7-3-15-3-22-5l9-4Z" fill="#000"/><path d="M685 500c2 0 5 0 6 2s-1 4-3 5l-19 10 11-1c4-1 7 0 10 3s3 7 1 10c-1 3-4 5-8 5-16 0-32 3-47 7-4 2-7 2-11 0-4-3-5-9-2-13 3-3 7-3 11-6 12-7 25-11 37-17l14-5ZM428 501c20 1 38 8 57 14l30 11c6 1 11 1 15 6 3 5 0 11-5 12-8 2-18-1-27-2-27-2-53-9-79-13-8-1-16-1-23-5-1-1-4-2-3-4 2-4 6-7 10-9 7-2 15 0 22 1 12 1 23 4 34 6l-25-8-15-4v-4l9-1Z" fill="#000000"/><path d="M480 404c10 1 19 0 29 3 9 3 18 10 22 19 4 6 2 16-6 19-6 4-15 3-23 2-20-3-40-9-60-14l-20-4-10-2-4-4c2-4 6-6 10-7l20-7 18-3 24-2ZM656 410c8 1 15 4 22 7l9 4c2 2 3 6 1 8l-10 4c-17 4-33 11-51 12l-9 1c-3 0-6-2-8-4-3-2-4-5-4-9 0-7 2-15 8-20 4-3 11-4 16-5 8 0 17 0 26 2Z" fill="#000000"/><path d="M676 575c3-2 7 0 7 4 0 3-3 4-6 4-3-1-4-6-1-8ZM366 583c2-1 5 0 7 1 2 3 2 7 0 10-3 2-6 2-9 0-3-3-2-9 2-11ZM624 584c1-1 4-1 5 1 0 2 0 4-2 4-3 1-5-3-3-5ZM649 584c5-2 10 3 8 7s-7 6-10 3-2-8 2-10ZM475 586c2-1 6 1 5 3 1 2-1 4-4 4-3-1-3-5-1-7ZM691 587c3-2 7 0 7 3 1 3-3 5-6 4-2-1-2-5-1-7ZM412 587c5 0 8 6 6 10-1 2-4 3-6 4-2-1-5-2-6-4-2-4 2-10 6-10ZM339 595c4-1 7 1 7 5-1 4-5 5-8 3-2-2-2-6 1-8ZM670 600c4-2 8 1 8 5s-5 7-8 4c-3-2-3-7 0-9ZM450 604c3 0 3 2 5 4l-2 3c-3 3-7 1-8-2 0-3 2-6 5-5ZM384 617c4 0 7 2 8 6 0 4-3 8-7 8-3 0-6-2-7-5-1-4 2-9 6-9Z" fill="#7b4a2d"/><path d="M597 505h1l3 15 3 26 8 13 6 12c2 5 2 10 5 14 3 5 5 10 5 16 0 9-6 17-14 20l-19 8c-5 3-9 5-15 5-5 0-11 0-13-5-2-2 0-4 2-5l12-3 16-5 13-5c6-2 9-8 7-14l-5-8-7-17-7-19c-4-8-6-17-5-26 0-7 1-15 4-22Z" fill="#000000"/><path d="M667 657c2 0 4 0 5 2 2 2 1 5-1 6l-16 4c-21 3-42 7-64 9-6 0-12 2-17 0l15-5 62-13 16-3Z" fill="#000000"/><path fill-rule="evenodd" clip-rule="evenodd" d="M482 429c13 2 26 7 37 15 3-2 7-2 10 0a94 94 0 0 1 39 90c9-6 20-8 30-5-1-34 16-68 44-87 11-7 25-12 39-12 9 0 19 2 27 7l4 1 5 1c10 7 18 16 23 26 8 16 10 33 8 51-3 29-20 57-45 72-14 8-31 13-47 11-13-2-25-8-35-17-9-8-15-19-19-31-1-4-6-7-9-9-9-3-18 0-26 5l-5 7c-7 19-21 36-39 47a99 99 0 0 1-57 14c-31-1-60-18-76-45a92 92 0 0 1 30-127c18-11 41-16 62-14Zm35 19 1 4c0 2 2 3 4 5 12 8 22 19 27 33a81 81 0 0 1-56 111c-26 6-55-1-75-19a82 82 0 0 1-23-90c9-25 32-45 59-51 21-5 43-2 63 6v1Zm190-1c-1-1-1-2-3-2-8-4-17-5-26-4-15 2-29 9-40 20a88 88 0 0 0-26 77c2 13 9 26 19 36 9 7 19 11 30 12 14 1 27-4 39-11 25-18 40-52 35-82a63 63 0 0 0-23-41l-4-3-1-2Z" fill="#1c2833"/><path d="M508 220a271 271 0 0 1 97 24c14 7 29 14 42 23 8 5 16 11 22 18l22 25c-9 4-18 3-27 2-17-2-34-4-51-3l-8-1-7-5-12-8c0 4-1 7-3 11-2 2-4 3-7 3-4-1-7-3-11-3a470 470 0 0 0-155 3h-11l-18-6c1 9 4 18 3 26-1 4-1 8-3 11-7 14-15 27-21 42-7 17-13 35-17 53 0 2-1 4-3 5l-12 2c5 9 6 20 5 30-1 12-3 26-9 36 7 9 10 21 10 33 1 19 0 37-7 55-2 4-5 9-10 11-1 1-4 1-4-1-2-4-2-9-3-13-2-15-9-29-20-40-8-7-17-14-26-19-6-2-11-4-16-8l-6-8c-12-32-16-67-12-101a285 285 0 0 1 37-113c10-16 22-30 35-43 10-9 20-17 31-23l14-5 32-11 19-2h43c23 0 44-2 67 0Z" fill="#922b21"/></g><g transform="translate(10 -60)"></g></g></svg><svg x="152" y="0" width="64" height="64" viewBox="0 0 980 980" fill="none" shape-rendering="auto"><mask id="viewboxMask"><rect width="980" height="980" rx="490" ry="490" x="0" y="0" fill="#fff" /></mask><g mask="url(#viewboxMask)"><g transform="translate(10 -60)"><path d="M580 141c9 1 19 4 27 9 7 5 15 9 21 15l19 15c6 6 10 14 13 21s5 14 4 22c-1 5-3 9-6 13-6 9-11 18-19 26 14 8 28 17 39 29 14 18 24 39 26 62 1 11 0 23-3 34-2 6-10 8-15 4-4-2-5-6-7-10s-5-7-6-11c-8-15-17-30-24-46l-7-14-24-1-12-1-8-5-11-8c-1 4-2 8-5 11-1 3-4 3-7 2l-13-3-45-5c-28-1-57 2-86 6l-24 4-9-2-17-5c1 7 3 15 3 23-1 5 0 10-3 14-7 14-15 27-21 42-7 17-13 35-17 53 0 2-1 4-3 5l-12 2c5 9 5 19 5 29-1 12-2 26-9 37 7 9 10 21 10 33 1 18 0 37-7 54-2 5-5 10-10 12-1 1-4 2-4-1-2-5-2-11-3-16l-16-6-28-10-10-4c-3-2-5-6-7-9-10-20-17-41-21-63a296 296 0 0 1 17-150c-14 1-29 1-41-5-9-5-16-13-21-21-4-8-7-16-9-25v-21c2-13 7-26 12-39l13-24c3-5 6-11 10-15 7-9 17-16 26-22 14-9 28-17 43-23 13-6 28-9 42-6 10 2 19 6 27 9 9 4 17 10 23 17 7 7 11 17 9 27l-7 22c11-2 23-3 35-2h19l51-1c-1-9 1-19 3-28 3-10 9-19 17-25 23-18 54-26 83-25Z" fill="#f4d03f"/><path d="M495 234c28 1 56 6 84 15a201 201 0 0 1 100 65c19 25 31 55 35 86a361 361 0 0 1 2 101l-5 34-4 20c-1 2-1 2-3 2-2-4-2-8-2-12-1-15 1-29 2-44 1-24 3-48 1-72l-6-45c-7-28-20-54-40-75-18-18-40-33-63-43-22-9-44-15-67-19-18-3-36-4-54-4a277 277 0 0 0-128 29c-13 9-25 20-35 32a276 276 0 0 0-55 139c-1 24 0 47 8 70l7 15 12 1 1 3c-3 2-7 2-11 3-10 2-20 6-29 12-7 5-14 11-18 19-5 10-3 22-1 33 5 19 17 37 33 49 11 9 25 14 39 16 10 2 20 0 30-1 5 4 8 12 11 17l18 27a136 136 0 0 0 66 50c22 9 45 14 68 19l41 8 17 5v4h-12a535 535 0 0 1-67-8 255 255 0 0 1-84-33c-11-7-21-16-29-27a214 214 0 0 1-16 123c-15 27-40 48-70 57-3 1-7 2-10 1-2 0-2-1-2-3 1-3 4-5 6-6 12-8 26-14 38-23 13-11 24-23 31-38 6-15 10-32 12-49 2-13 3-26 2-40l-4-38-18-36-19 4a88 88 0 0 1-75-38 93 93 0 0 1-20-58c0-9 3-18 8-25s12-13 19-17c5-4 12-6 18-8l-9-24c-5-22-5-45-2-67a292 292 0 0 1 63-149c9-10 18-19 29-26 7-4 14-5 20-9 43-19 90-25 137-22Z" fill="#000"/><path d="M475 243a276 276 0 0 1 121 23c23 10 45 25 63 43 20 21 33 47 40 75l6 45c2 24 0 48-1 72-1 15-3 29-2 44 0 4 0 8 2 12l-1 20c-2 5-2 10-2 16-2 24-2 49-6 74-1 12-3 25-8 36-3 9-8 17-15 24-12 13-27 24-43 33-19 11-39 16-58 24-5 2-10 4-13 8 8 1 15 0 23-2-5 12-6 24-6 36 0 5-1 11 1 16 3 5 8 9 13 12l35 13c22 8 43 18 65 27 2 4 5 7 6 12 6 11 7 23 3 35-5 13-15 24-27 31-16 11-36 19-55 24a494 494 0 0 1-235-7c-20-7-40-14-58-24-14-8-29-18-40-31-6-8-11-19-12-29a122 122 0 0 0 86-107c4-24 4-49 0-73 8 11 18 20 29 27l27 14a331 331 0 0 0 124 27h12v-4l-17-5-41-8c-23-5-46-10-68-19-13-6-27-13-39-21-10-9-19-18-27-29l-18-27c-3-5-6-13-11-17-10 1-20 3-30 1-14-2-28-7-39-16a94 94 0 0 1-33-49c-2-11-4-23 1-33 4-8 11-14 18-19 9-6 19-10 29-12 4-1 8-1 11-3l-1-3-12-1-7-15c-8-23-9-46-7-70a276 276 0 0 1 54-139c10-12 22-23 35-32a277 277 0 0 1 128-30Z" fill="#6b4226"/><path d="M260 571c4 0 7 0 11 2 5 1 11 4 14 8 2 3 2 7 0 10-5 6-12 10-16 16 6 4 14 6 21 9 4 1 8 3 11 6l1 3-8-2-24-7c-4-1-8-3-9-7-1-3 1-7 3-10l15-13c-4-7-15-8-19-15ZM703 577l2 3 2 16a483 483 0 0 1-2 89c-2 11-5 23-10 33a198 198 0 0 1-106 71c-1 14-3 31-2 47l5 5c8 6 18 9 27 12a451 451 0 0 1 68 28c7 4 13 9 18 15-5 1-10-1-16-2-22-9-43-19-65-27l-35-13c-5-3-10-7-13-12-2-5-1-11-1-16 0-12 1-24 6-36-8 2-15 3-23 2 3-4 8-6 13-8 19-8 39-13 58-24 16-9 31-20 43-33 7-7 12-15 15-24 5-11 7-24 8-36 4-25 4-50 6-74 0-6 0-11 2-16Z" fill="#000"/><path d="M681 473c6 2 13 7 15 14 2 4 1 9-3 12-5 2-10 0-12-4-3-3-7-7-12-8-4-1-9 0-13 2l4 5c4 6 5 14 5 21s-2 14-4 20c3-1 6-4 10-4 0 4 0 7-2 10-5 6-13 10-21 11s-17 2-24-3c-5-3-5-8-5-13l-2-6c0-10 4-19 9-27 7-11 17-20 29-26 8-4 17-6 26-4ZM473 519c14 2 28 6 42 11 3 1 6 1 8 4 4 3 4 9 0 12-3 2-7 2-11 2h-45c-13 0-28 1-41-1l-7-3-14 2c-2 0-5 0-6-2-3-2-2-6 0-8s6-3 9-4c9-2 18-4 27-4l9-1-16-1c-6-1-13 0-19-2-2 0-3-1-3-3s2-2 3-3l15-2c16-1 33 0 49 3Z" fill="#000000"/><path d="m688 421 1 2-13 14c-7 6-14 10-22 14l-26 19-13 6-9 1-10 20-1 1-1-1c-2-5 0-13 1-19 2-6 2-12 8-16 3-3 7-3 10-5l31-20c8-6 16-11 25-13l19-3ZM371 430c9 0 19 0 28 2 9 1 17 4 26 6 5 2 10 1 15 2 8 0 15-1 23 2 8 2 16 3 23 6 12 3 24 5 35 11 0-2 0-4 2-6 2-1 5 0 6 2 5 7 8 17 11 25 1 4-2 9-6 9-5 1-8-4-12-6-5-2-7-7-12-9l-30-9-19-5-15-3-15-4-24-9-30-9-6-5Z" fill="#b7950b"/><path d="M676 575c3-2 7 0 7 4 0 3-3 4-6 4-3-1-4-6-1-8ZM366 583c2-1 5 0 7 1 2 3 2 7 0 10-3 2-6 2-9 0-3-3-2-9 2-11ZM624 584c1-1 4-1 5 1 0 2 0 4-2 4-3 1-5-3-3-5ZM649 584c5-2 10 3 8 7s-7 6-10 3-2-8 2-10ZM475 586c2-1 6 1 5 3 1 2-1 4-4 4-3-1-3-5-1-7ZM691 587c3-2 7 0 7 3 1 3-3 5-6 4-2-1-2-5-1-7ZM412 587c5 0 8 6 6 10-1 2-4 3-6 4-2-1-5-2-6-4-2-4 2-10 6-10ZM339 595c4-1 7 1 7 5-1 4-5 5-8 3-2-2-2-6 1-8ZM670 600c4-2 8 1 8 5s-5 7-8 4c-3-2-3-7 0-9ZM450 604c3 0 3 2 5 4l-2 3c-3 3-7 1-8-2 0-3 2-6 5-5ZM384 617c4 0 7 2 8 6 0 4-3 8-7 8-3 0-6-2-7-5-1-4 2-9 6-9Z" fill="#000000"/><path d="m591 528 2 2 7 22c4 8 10 15 15 23 4 6 6 13 5 20-1 6-4 12-9 16-7 7-16 12-25 16-5 3-11 4-17 2l5-4c11-9 25-14 36-24 2-2 4-6 4-9-1-7-5-11-8-16-5-9-10-16-13-25-2-7-4-16-2-23Z" fill="#000000"/><path d="m636 651-7 8-17 16c-9 10-19 18-32 22-18 6-38 4-57 0-10-3-21-7-31-13l-6-5c0-3 2-4 4-4l17 5 33-4c13-2 27-3 39 0l5-1 19-8c4-2 8-3 13-3 6-4 13-10 20-13Z" fill="#000000"/><path d="M508 220a271 271 0 0 1 97 24c14 7 29 14 42 23 8 5 16 11 22 18l22 25c-9 4-18 3-27 2-17-2-34-4-51-3l-8-1-7-5-12-8c0 4-1 7-3 11-2 2-4 3-7 3-4-1-7-3-11-3a470 470 0 0 0-155 3h-11l-18-6c1 9 4 18 3 26-1 4-1 8-3 11-7 14-15 27-21 42-7 17-13 35-17 53 0 2-1 4-3 5l-12 2c5 9 6 20 5 30-1 12-3 26-9 36 7 9 10 21 10 33 1 19 0 37-7 55-2 4-5 9-10 11-1 1-4 1-4-1-2-4-2-9-3-13-2-15-9-29-20-40-8-7-17-14-26-19-6-2-11-4-16-8l-6-8c-12-32-16-67-12-101a285 285 0 0 1 37-113c10-16 22-30 35-43 10-9 20-17 31-23l14-5 32-11 19-2h43c23 0 44-2 67 0Z" fill="#f4d03f"/></g><g transform="translate(10 -60)"><path d="M357 396c9-2 18 4 20 12 1 5 1 12-1 17-3 7-11 10-18 9-9 0-16-9-16-18 0-4 2-7 3-11 3-4 8-8 12-9Z" fill="#ffffff"/><path d="M358 405c7-2 12 3 13 9 2 8-5 15-13 14-7-2-11-10-8-17 2-3 5-5 8-6Z" fill="#fff"/><path fill-rule="evenodd" clip-rule="evenodd" d="M326 398c-2-4-5-7-9-9-5-1-10 1-14 3-4 1-7 4-9 7-11-4-23 0-30 10-3-4-6-7-10-9-3-1-6 0-9 1l-4 1c-6 1-12 3-16 9-4 7-4 16 0 23 2 5 6 8 11 10-7 1-13 5-17 11l-2-1-9-3c-6 0-12 2-17 6-4 4-8 8-10 13-2 7-1 13 1 20-9 8-13 21-6 32 4 7 10 9 17 11 5 1 11 1 16-1 2 6 6 12 11 15 6 3 14 4 21 1 5-1 10-3 13-8 3-3 3-8 4-12 5-2 9-3 13-7 5-4 9-10 10-16s0-12-2-17c-3-6-9-10-15-12 1-5 2-9 1-14l6 2c2 6 4 11 8 15 7 5 15 7 23 6 6 0 11-4 14-9 2-3 3-7 3-11h1c7 1 14 1 19-4 7-6 9-18 6-27-3-8-9-11-17-14 2-7 2-15-2-22Zm-70 51 2-10-10 6 8 4Z" fill="#ffffff"/><path d="M236 409c3-2 7-2 10-2 7 2 12 9 11 16 0 6-3 11-8 14-9 5-22-2-22-13 0-6 4-13 9-15ZM309 398c5 0 10 3 12 8 4 6 3 14 1 22 6 2 10 6 12 12 3 5 1 12-3 16-5 4-11 5-17 4-2 7-7 13-14 16-5 1-11 0-15-4-5-4-7-10-8-16-4-1-7-1-10-4-5-4-5-12-2-17l8-6c-3-4-5-10-4-15s4-9 9-10c6-1 11 1 16 5 4-6 8-11 15-11ZM257 460c2 8 0 16-3 23 5 0 9 1 13 4 5 4 7 9 7 15 1 5-1 10-6 13-5 4-12 5-18 5 1 5 2 10-1 14-5 7-15 8-22 5-6-3-10-9-12-16-6 2-13 3-19 2-5-1-9-4-11-8-4-5-4-12 0-17l10-7c-4-7-7-17-4-25 1-5 6-9 12-8 6 0 12 3 17 7 3-7 8-14 16-16 8-3 18 0 21 9Z" fill="#fff"/></g></g></svg><svg x="228" y="0" width="64" height="64" viewBox="0 0 980 980" fill="none" shape-rendering="auto"><mask id="viewboxMask"><rect width="980" height="980" rx="490" ry="490" x="0" y="0" fill="#fff" /></mask><g mask="url(#viewboxMask)"><rect fill="#f5e6ca" width="980" height="980" x="0" y="0" /><g transform="translate(10 -60)"><path fill-rule="evenodd" clip-rule="evenodd" d="m555 134-4-1-18 3a266 266 0 0 0-97 46c-12 8-23 18-32 29a121 121 0 0 0-43-36l-17-9-7-2c-2 0-4 3-5 5 0 3 2 7 4 10l4 6 8 13 12 17 11 15a248 248 0 0 0-21 9l-14 7-10 5c-10 4-20 10-29 15l-4 2-19 12-3 3c-10 7-20 13-28 22-10 10-19 21-25 34a203 203 0 0 0-21 76l-1 6-4 38v75c0 10 1 20-1 29l-8 53c-6 31-11 62-13 94a185 185 0 0 0 38 138l11 8-3-6-4-5-8-18-2-3a291 291 0 0 1-16-51 206 206 0 0 0 52 79c9 8 19 15 31 18 4 0 7 0 9-3v-8l-1-7-2-9c14 11 29 18 46 21 10 3 21 2 31 0l14-1 8-1 49-4a1209 1209 0 0 1 118-8c15 1 30 4 45 7h10l6-1c13-2 25-5 38-9a179 179 0 0 0 46-25 164 164 0 0 1-19 44l-3 5c6 2 11 4 16 3 14-2 25-10 36-18l6-3 5-2a134 134 0 0 0 59-55c12-22 20-48 21-74 0-23-3-45-10-67l-14-37-3-9a2009 2009 0 0 1-20-53 455 455 0 0 1-21-75v-1c3-16 5-33 5-50-1-16-6-31-12-46a276 276 0 0 1 42 92 241 241 0 0 1 3 74c0 5-1 11 2 15l4-5 4-9 2-7c11-25 15-54 13-82-2-35-14-70-33-100-20-34-47-62-78-86a353 353 0 0 0-215-71l21-22v-1a140 140 0 0 1 41-34l13-7 6-6-2-1Zm215 484-6-14 1 4c3 20 7 40 8 61 2 27 2 54-2 80-3 21-8 43-19 62-5 10-12 19-19 28a174 174 0 0 0 61-120c0-18-2-36-7-54l-17-47Z" fill="#0b0b0b"/><path d="M486 236c57-2 115 18 159 56a209 209 0 0 1 73 190c-1 4-1 8-4 12l-1-3v-33a215 215 0 0 0-172-206 235 235 0 0 0-270 153c-12 37-14 78-6 116 6-2 12-2 17-2 2 1 5 1 6 3s0 3-1 4l-12 4c-14 3-27 8-37 18a63 63 0 0 0-22 45c0 12 3 24 8 35 8 13 19 24 33 31 18 10 41 13 62 7 2-1 4-2 6-1s3 4 4 6l15 30a215 215 0 0 0 72 63c28 15 59 21 90 26 3 1 8 1 10 4 1 2 0 3-2 4l-11 1a231 231 0 0 1-147-62c5 18 8 36 8 54 0 12-2 23-6 34-5 10-11 18-19 26a196 196 0 0 1-60 43c-1-1 1-2 2-3l17-14c13-12 25-23 35-38a93 93 0 0 0 17-65l-4-39-2-10-12-17c-5-10-11-20-13-31a93 93 0 0 1-96-31 81 81 0 0 1-19-51c0-12 3-23 8-34 9-16 23-29 40-36-8-31-8-62-3-93 8-40 26-77 51-108 45-54 115-87 186-88Z" fill="#000"/><path d="M541 252a214 214 0 0 1 172 206v33c-1 5-2 10-1 15-2 2-3 3-3 5-3 18-1 37 1 55 4 29 6 59 2 88-3 28-13 56-30 79-16 21-38 34-62 43-15 6-30 9-45 13-11 2-22 4-32 8 1 2 4 1 6 2 12 1 24-1 36-2-5 8-8 17-9 26-2 10 2 19 9 26 6 7 15 11 24 14 5 2 11 3 17 3 7 9 13 18 14 30 2 12-1 24-8 34-9 14-22 23-37 30-18 9-38 15-57 18a352 352 0 0 1-192-23c-18-10-38-23-48-42-4-7-8-16-6-24 18-10 33-23 47-38 8-8 14-16 19-26 4-11 6-22 6-34 0-18-3-36-8-54a235 235 0 0 0 147 62l11-1c2-1 3-2 2-4-2-3-7-3-10-4-31-5-62-11-90-26-18-10-36-22-50-37-8-8-16-17-22-26l-15-30c-1-2-2-5-4-6s-4 0-6 1a82 82 0 0 1-95-38c-5-11-8-23-8-35 1-17 9-34 22-45 10-10 23-15 37-18l12-4c1-1 2-2 1-4s-4-2-6-3c-5 0-11 0-17 2-8-38-6-79 6-116a236 236 0 0 1 270-153Z" fill="#ffe0bd"/><path d="m712 506 3 3 1 13 3 45c3 20 5 40 5 60 0 16-1 32-5 47-6 28-20 56-40 76a174 174 0 0 1-88 46c-1 9-4 16-4 25-1 6 2 10 5 15 8 8 18 14 28 19l18 9c-3 3-8 1-12 2-6 0-12-1-17-3-9-3-18-7-24-14-7-7-11-16-9-26 1-9 4-18 9-26-12 1-24 3-36 2-2-1-5 0-6-2 10-4 21-6 32-8 15-4 30-7 45-13 24-9 46-22 62-43 17-23 27-51 30-79 4-29 2-59-2-88-2-18-4-37-1-55 0-2 1-3 3-5ZM262 566c6 0 12 1 15 6 2 3 2 7 1 10-3 8-9 14-11 22-1 4 0 7 3 9 7 5 16 7 24 10l-2 2h-11c-6-1-12-2-17-5-5-4-9-11-7-18 2-9 9-15 12-23-7-4-14-2-20-8 3-4 8-6 13-5Z" fill="#000"/><g fill="#6c3483"><path d="M446 479c15-2 30 2 43 10 14 7 23 20 29 34 1 4 3 9 0 13-5-4-8-9-11-14-6-8-14-17-23-22-11-7-25-11-38-9-14 1-27 9-38 18l-12 11c-4-4-2-10 1-14 11-17 30-26 49-27ZM676 480c6 2 10 6 13 11 3 8 2 17-1 25-1 3-4 6-8 5s-5-5-4-9c0-6 2-14-2-18-2-3-7-4-10-4-8-1-17 3-24 7-12 7-21 17-28 28-1 2-2 6-4 6-3-2-1-8 0-11 4-13 14-24 26-31 6-5 13-8 21-10 7-2 14-2 21 1Z"/><path d="M644 506c6 0 10 5 12 11 2 9 0 17-4 25l30-10c-5 9-16 14-24 17-10 4-21 8-32 8-5 0-10 0-13-4 3-5 7-4 12-6-3-6-3-12-2-19 0-6 2-12 7-16 4-4 8-7 14-6ZM484 515c4-1 8 1 11 4 4 4 6 8 7 13 3 7 1 15 1 22h13c2 0 3 2 2 4-1 3-4 4-6 5-11 3-23 3-34 3-17 0-34-3-49-10-5-2-10-4-14-8l11 3c12 3 25 4 37 5-2-9-3-20 2-28 3-7 11-12 19-13Z"/></g><path d="m688 421 1 2-13 14c-7 6-14 10-22 14l-26 19-13 6-9 1-10 20-1 1-1-1c-2-5 0-13 1-19 2-6 2-12 8-16 3-3 7-3 10-5l31-20c8-6 16-11 25-13l19-3ZM371 430c9 0 19 0 28 2 9 1 17 4 26 6 5 2 10 1 15 2 8 0 15-1 23 2 8 2 16 3 23 6 12 3 24 5 35 11 0-2 0-4 2-6 2-1 5 0 6 2 5 7 8 17 11 25 1 4-2 9-6 9-5 1-8-4-12-6-5-2-7-7-12-9l-30-9-19-5-15-3-15-4-24-9-30-9-6-5Z" fill="#000000"/><path d="M216 569c5 0 10-1 14 2 3 2 5 5 4 9-2 4-6 7-11 7h-16c-5-1-9-3-11-7-1-4 2-7 5-9 5-2 10-1 15-2ZM229 592c3 1 7 3 7 7 0 3-1 6-4 7-5 4-11 4-17 6-5 1-10 2-14-1s-3-9 0-12c4-4 8-4 13-5s10-3 15-2ZM301 644h8c3 1 6 4 6 8 0 5-4 9-9 10-5 2-9-2-11-6-1-5 1-11 6-12Z" fill="#d4ac0d"/><path d="m591 528 2 2 7 22c4 8 10 15 15 23 4 6 6 13 5 20-1 6-4 12-9 16-7 7-16 12-25 16-5 3-11 4-17 2l5-4c11-9 25-14 36-24 2-2 4-6 4-9-1-7-5-11-8-16-5-9-10-16-13-25-2-7-4-16-2-23Z" fill="#000000"/><path d="M476 660c3 0 5 2 7 4l13 7c11 5 23 8 34 11 15 5 30 6 45 6 12 1 23 2 34 1l4 2c-18 9-41 11-61 10-23-1-46-8-66-18-6-4-13-8-14-16-1-3 1-7 4-7Z" fill="#000000"/><path fill-rule="evenodd" clip-rule="evenodd" d="M485 464c18 2 36 4 53 10a1666 1666 0 0 0 38 10c5 1 10 2 15 1a176 176 0 0 1 15-1l8-4 3-2a163 163 0 0 1 85-11l15 2c5 0 9 2 13 3 4 2 7 3 11 3 3 1 6 2 7 4 2 3 0 6-3 7l-9 2h-3c2 18-3 38-11 55-6 11-14 21-25 27-9 6-22 9-33 10-11 0-24-2-34-7-9-4-17-13-21-22a63 63 0 0 1-6-36l3-21-7 1c-7 1-14 2-21 0l-9-1h-4v21c-4 18-13 35-25 49-6 6-13 12-21 16-12 6-25 11-39 14a94 94 0 0 1-75-16c-9-7-18-16-25-27s-10-24-11-37c0-7 1-15 3-22a123 123 0 0 0-11 5h-4c-1-2 0-4 2-5 5-6 13-9 20-12l4-1 28-10a278 278 0 0 1 74-5Zm-57 16h33a553 553 0 0 1 86 13c1 12 0 26-3 38-5 14-15 28-29 36l-22 11c-10 3-21 4-31 5-8 0-17-2-25-5l-22-10c-9-7-17-14-23-23-7-12-10-26-9-39l2-13v-6h1a129 129 0 0 1 36-7h6Zm269 4-21-3a157 157 0 0 0-56 12c-2 6-3 12-3 19-1 9-1 20 2 29 4 8 10 16 18 20 8 3 17 4 25 4 11 0 22-2 30-9 10-8 16-20 19-32 4-12 4-25 5-37l-19-3Z" fill="#000000"/><path fill-rule="evenodd" clip-rule="evenodd" d="m550 141 7-6c-5-3-10-2-15-1h-2c-25 6-49 14-71 26-25 14-47 30-65 51a119 119 0 0 0-40-34 390 390 0 0 1-22-12h-8c-2 2-2 5-1 7a36 36 0 0 0 5 11 707 707 0 0 1 22 31l11 17h-2l-17 8-6 3-12 6-19 10-11 6-23 13-1 1-25 17c-10 8-19 18-26 28-8 13-10 27-13 41l-1 4-6 45-3 33-1 20-2 32-1 21c0 15-2 30-3 44a4695 4695 0 0 0-3 44c0 27 1 54 6 81 3 15 9 30 16 44a115 115 0 0 0 28 39l6 5 7-7 24-37a296 296 0 0 0 61 80 255 255 0 0 0 44 30c3 1 6 3 9 2 2 0 2-2 2-4l-6-6-6-6a305 305 0 0 1-38-105 557 557 0 0 1-7-148c8 30 20 59 36 85l2 3 16 25 1 1c3 4 5 7 9 9l-2-9-1-4a452 452 0 0 1-14-208 366 366 0 0 0 134-130c11-15 21-30 30-46l6 4c4 24 2 47-1 70v8c-3 20-8 39-17 57l-1 3-3 5c2 1 3 2 5 1 4-1 6-4 9-7l16-31c11-29 13-60 12-90a406 406 0 0 1 71 83 273 273 0 0 1 25 68 257 257 0 0 1-3 134c-1 3-2 6-1 9 5 0 9-3 12-6 6-6 11-14 16-21l1-1a204 204 0 0 0 33-75 582 582 0 0 0 10-84c-1-16-5-30-11-45a287 287 0 0 1 44 110c2 15 3 31 2 46v6l-1 11v2c0 3 0 5 3 7l3-7 4-7 2-6c11-26 15-56 13-85-3-37-16-73-36-103-20-31-46-58-75-80a357 357 0 0 0-215-72l5-5 25-28a122 122 0 0 1 32-24l12-7ZM438 385c16-23 32-47 45-72l-6 6-17 16a234 234 0 0 0-63 104c15-16 29-35 41-54Z" fill="#0b0b0b"/></g><g transform="translate(10 -60)"></g></g></svg><svg x="304" y="0" width="64" height="64" viewBox="0 0 980 980" fill="none" shape-rendering="auto"><mask id="viewboxMask"><rect width="980" height="980" rx="490" ry="490" x="0" y="0" fill="#fff" /></mask><g mask="url(#viewboxMask)"><g transform="translate(10 -60)"><path d="m405 197-2 7-4 12c17-4 33-6 50-7 20-1 41 0 62 3 18 2 36 7 54 11l57 17c15 4 30 8 46 10 4 1 7 1 10 4l-3 4c-2 3-5 3-8 5 10 7 19 15 27 23l16 20c3 4 6 9 7 14v5l-13 7c4 12 8 24 8 37 0 10 1 21-3 31-1 3-1 6-4 7-4 1-7-2-9-5a328 328 0 0 1-42-64l-14-3 6 10c1 1 3 3 2 5-1 3-4 3-7 4-14 3-30 1-44-2-22-6-43-14-64-23l-24-13c-5-1-9-4-13-6-3-1-6-2-7-5l6-7-2-3c-3-1-7 1-11 1-6 0-12 1-17 3l2-12c0-2-3-4-4-2-4 2-6 5-9 8l-10 12-3 1-24-6-8 1c-2 1-2 3 0 4 3 4 6 7 8 12 0 9-5 17-10 24-9 11-19 21-31 29l-21 14c-4 2-6 5-6 8l-1 29c0 3 0 6-2 9-15 15-28 32-34 53-4 15-3 29-2 44v21l-1 9c-1 4-4 7-8 8-10 3-20 8-32 8-5 0-7 4-12 2s-6-7-8-11c-21-46-31-96-27-147 2-29 9-58 22-84 11-23 26-44 45-61a194 194 0 0 1 57-34l5-2a176 176 0 0 1 48-40c2-1 5-1 6 1Z" fill="#784212"/><path d="M486 236c57-2 115 18 159 56a209 209 0 0 1 73 190c-1 4-1 8-4 12l-1-3v-33a215 215 0 0 0-172-206 235 235 0 0 0-270 153c-12 37-14 78-6 116 6-2 12-2 17-2 2 1 5 1 6 3s0 3-1 4l-12 4c-14 3-27 8-37 18a63 63 0 0 0-22 45c0 12 3 24 8 35 8 13 19 24 33 31 18 10 41 13 62 7 2-1 4-2 6-1s3 4 4 6l15 30a215 215 0 0 0 72 63c28 15 59 21 90 26 3 1 8 1 10 4 1 2 0 3-2 4l-11 1a231 231 0 0 1-147-62c5 18 8 36 8 54 0 12-2 23-6 34-5 10-11 18-19 26a196 196 0 0 1-60 43c-1-1 1-2 2-3l17-14c13-12 25-23 35-38a93 93 0 0 0 17-65l-4-39-2-10-12-17c-5-10-11-20-13-31a93 93 0 0 1-96-31 81 81 0 0 1-19-51c0-12 3-23 8-34 9-16 23-29 40-36-8-31-8-62-3-93 8-40 26-77 51-108 45-54 115-87 186-88Z" fill="#000"/><path d="M541 252a214 214 0 0 1 172 206v33c-1 5-2 10-1 15-2 2-3 3-3 5-3 18-1 37 1 55 4 29 6 59 2 88-3 28-13 56-30 79-16 21-38 34-62 43-15 6-30 9-45 13-11 2-22 4-32 8 1 2 4 1 6 2 12 1 24-1 36-2-5 8-8 17-9 26-2 10 2 19 9 26 6 7 15 11 24 14 5 2 11 3 17 3 7 9 13 18 14 30 2 12-1 24-8 34-9 14-22 23-37 30-18 9-38 15-57 18a352 352 0 0 1-192-23c-18-10-38-23-48-42-4-7-8-16-6-24 18-10 33-23 47-38 8-8 14-16 19-26 4-11 6-22 6-34 0-18-3-36-8-54a235 235 0 0 0 147 62l11-1c2-1 3-2 2-4-2-3-7-3-10-4-31-5-62-11-90-26-18-10-36-22-50-37-8-8-16-17-22-26l-15-30c-1-2-2-5-4-6s-4 0-6 1a82 82 0 0 1-95-38c-5-11-8-23-8-35 1-17 9-34 22-45 10-10 23-15 37-18l12-4c1-1 2-2 1-4s-4-2-6-3c-5 0-11 0-17 2-8-38-6-79 6-116a236 236 0 0 1 270-153Z" fill="#fad7a0"/><path d="m712 506 3 3 1 13 3 45c3 20 5 40 5 60 0 16-1 32-5 47-6 28-20 56-40 76a174 174 0 0 1-88 46c-1 9-4 16-4 25-1 6 2 10 5 15 8 8 18 14 28 19l18 9c-3 3-8 1-12 2-6 0-12-1-17-3-9-3-18-7-24-14-7-7-11-16-9-26 1-9 4-18 9-26-12 1-24 3-36 2-2-1-5 0-6-2 10-4 21-6 32-8 15-4 30-7 45-13 24-9 46-22 62-43 17-23 27-51 30-79 4-29 2-59-2-88-2-18-4-37-1-55 0-2 1-3 3-5ZM262 566c6 0 12 1 15 6 2 3 2 7 1 10-3 8-9 14-11 22-1 4 0 7 3 9 7 5 16 7 24 10l-2 2h-11c-6-1-12-2-17-5-5-4-9-11-7-18 2-9 9-15 12-23-7-4-14-2-20-8 3-4 8-6 13-5Z" fill="#000"/><path d="M623 498c2-1 5 2 6 3 8 8 19 13 30 13 5 0 11-1 16-3 2-2 4-5 7-6s7 0 9 2c4 3 4 10 0 13-5 7-14 10-22 11-10 1-21-2-30-8-8-4-14-10-17-18-1-3-2-6 1-7ZM530 500l3-1c3 2 1 5 0 7a97 97 0 0 1-50 38c-24 8-52 4-72-12-2-3-4-6-3-10s4-7 8-7c3 0 6 2 8 4 8 5 16 9 25 10 12 2 23 0 34-3 13-4 25-12 36-20 4-2 7-5 11-6Z" fill="#000000"/><path d="M658 387c7 1 14 2 20 5l6 5c-8 5-18 8-28 8h-17l-16 2c-6 1-10 7-13 12-6 11-8 25-10 37-4-3-3-8-3-12 0-14 2-29 10-41 4-6 10-13 17-14 11-3 23-3 34-2ZM533 426c6-1 12 0 17 3 2 0 2 1 2 3l-8 8c-3 3-8 4-12 6l-18 3-47 3c-14 1-28 1-41 4-14 4-26 10-37 18l-9 8c-1-2-1-4 1-6 3-6 9-12 14-17 16-12 35-19 55-22l69-7c5 0 9-3 14-4Z" fill="#6e2c00"/><path d="M609 602c1 9-4 16-9 23-4 3-9 6-15 6s-13-3-19-5c-4-2-8-3-11-6l5-4c9-1 17 3 25 4 4 0 7-3 9-6 5-5 9-10 15-12Z" fill="#ba4a00"/><path d="M667 657c2 0 4 0 5 2 2 2 1 5-1 6l-16 4c-21 3-42 7-64 9-6 0-12 2-17 0l15-5 62-13 16-3Z" fill="#e74c3c"/><path d="M404 197c2 2 0 5-1 7l-4 12a338 338 0 0 1 135 0c28 6 55 14 82 22 17 5 33 9 51 12 4 0 8 1 11 4l-4 5-7 4c15 11 30 24 41 39 4 6 8 12 10 19 1 3-1 4-3 6l-18 7c-18 7-38 5-57 1 2 4 3 7 6 9 1 2 3 3 2 6s-5 3-7 4c-14 3-30 1-44-2-22-6-44-14-65-24l-39-19-5-4 7-7-2-3-15 1-14 3 3-12c1-2-1-3-3-3l-5 4-13 13-3 5-5-1c-8-3-17-5-25-5-3 0-6 1-5 4 3 5 7 7 9 13 0 8-5 17-10 24-9 11-19 21-30 29l-22 14c-4 2-6 4-6 8l-1 30c0 3 0 7-3 9-14 14-27 32-32 51-4 14-4 27-3 41v27c-1 2-1 6-4 7l-7-2-19-7a85 85 0 0 1-38-40c-6-13-10-26-13-40a228 228 0 0 1 3-104 178 178 0 0 1 72-102c13-10 28-19 44-24l4-3a162 162 0 0 1 46-39c3-1 5-1 6 1Z" fill="#784212"/></g><g transform="translate(10 -60)"></g></g></svg></svg>
